<svg width="512" height="512" xmlns="http://www.w3.org/2000/svg" data-name="Layer 1">

 <title>icon-s</title>
 <g>
  <title>Layer 1</title>
  <rect stroke="null" id="svg_1" fill="#bdccd4" height="513" width="512" y="0" x="0" class="cls-1"/>
  <polygon id="svg_2" fill="#fff" points="130.65 58.2 31.9 269.01 183.55 462.82 365.95 427.73 480.24 237.52 336.41 52 130.65 58.2" class="cls-2"/>
  <path id="svg_3" d="m488.44,230.71l-142.16,-186.3l0,0a10.57,10.57 0 0 0 -8.87,-4.18l-204.15,8.39l0,0a10.61,10.61 0 0 0 -9.15,6l-102.05,208.38l0,0a10.57,10.57 0 0 0 1.14,11.14l150.59,194.6a10.58,10.58 0 0 0 10.53,3.95l188.85,-36.69l1.35,-0.46a10.59,10.59 0 0 0 5.72,-4.71l108.92,-188.39a10.6,10.6 0 0 0 -0.72,-11.73zm-302.44,219.04l-24.1,-187.3l224,113.55l-199.9,73.75zm178.21,-342.54l-204.54,136.79l-19.12,-171.13l223.66,34.34zm-214.56,141.32l-102.77,12l84.77,-172.63l18,160.63zm242.81,118.85l-226.59,-114.78l207,-138.45l1.2,1.54l18.83,250.94l-0.44,0.75zm-33.67,-271.75l-180.28,-27.77l154.49,-6.42l25.79,34.19zm-311.08,175.45l103.1,-12l22.39,174.14l-125.49,-162.14zm316.61,144.92l-120,23.36l135.29,-49.82l-15.29,26.46zm38.14,-65.88l-16.62,-219l81.37,106.88l-64.75,112.12z"/>
  <polygon id="svg_4" fill="#fff" points="157.03 220.4 160.14 249.69 178.19 258.84 374.4 120.32 373.55 108.64 358.48 106.33 157.03 220.4" class="cls-2"/>
  <path id="svg_5" d="m297.84,193.19l0,0c-11,-3.95 -22.25,-3.44 -29.35,1.3c-7.73,3.69 -13.91,13 -16.18,24.53c-3.31,16.67 2.69,31.43 13.69,33.59c9.44,1.87 19.48,-6.76 24,-20.27c8.76,1.95 17,1 22.68,-2.23a15,15 0 0 0 7,-7.93c3.74,-10.53 -5.84,-23.26 -21.84,-28.99z"/>
  <path id="svg_6" d="m221.27,164c-8.94,-3.2 -18.77,-2.18 -27.68,2.88l-0.08,0a44.16,44.16 0 0 0 -19.37,23.68c-7.61,21.25 1.15,43.9 19.53,50.47c8.94,3.2 18.77,2.18 27.68,-2.88l0.08,0a44.16,44.16 0 0 0 19.37,-23.65c7.61,-21.25 -1.15,-43.89 -19.53,-50.5z"/>
  <ellipse id="svg_7" transform="rotate(-64.91 -62.71 287.4)" fill="#fff" ry="16.31" rx="21.33" cy="480.39999" cx="131.89" class="cls-2"/>
  <circle id="svg_8" fill="#fff" r="9.96" cy="185.74" cx="225.91" class="cls-2"/>
  <path id="svg_9" d="m310.56,113.25a44.14,44.14 0 0 0 -30.26,4.47a32.67,32.67 0 0 0 -16.76,22.33c-3.78,19.15 11.16,38.29 33.3,42.66a44.15,44.15 0 0 0 30.26,-4.47l0.08,-0.05c8.92,-5.06 14.84,-13 16.68,-22.28c3.78,-19.15 -11.16,-38.29 -33.3,-42.66z"/>
  <ellipse id="svg_10" transform="rotate(-64.91 37.95 340.88)" fill="#fff" ry="16.31" rx="21.33" cy="481.48" cx="324.93" class="cls-2"/>
  <circle id="svg_11" fill="#fff" r="9.96" cy="132.25" cx="320.22" class="cls-2"/>
  <ellipse id="svg_12" transform="rotate(-65.8 -7.11999 297.91)" ry="9.75" rx="6.5" cy="452.36" cx="219.55"/>
  <ellipse id="svg_13" transform="rotate(-83.32 83.38 374.84)" ry="6.5" rx="9.75" cy="515.4" cx="335.71"/>
 </g>
</svg>